<?xml version="1.0" encoding="UTF-8"?>
<svg viewBox="0 0 278.47107 922.99896" xmlns="http://www.w3.org/2000/svg">
 <g transform="translate(-227.55 -58.142)" stroke="#000">
  <path d="m353.48 320.92c-35.29 3.2716-66.768 12.915-88.046 50.428-15.333 27.032-12.274 59.573-6.0326 77.084 5.7313 16.081 4.2328 31.45-3.5548 38.911 2.2511 5.045 0.4163 0.75445 2.4444 5.8408 31.562-8.3533 30.932 23.782 30.759 36.591-0.52977 39.178-18.724 56.635-44.436 54.964l-3.3108 5.1254c17.83 14.545-8.2864 50.601-12.065 76.414-5.3192 36.333 7.5628 68.816 30.163 89.149 27.648 24.874 66.323 27.274 109.26 26.812 48.803-0.52593 72.855-5.791 95.182-21.449 35.485-24.886 46.913-68.799 39.547-96.522-12.118-45.613-25.883-65.689-11.395-79.095l-2.6812-5.3624c-38.717 12.275-45.205-33.432-45.58-52.953-0.3562-18.558 4.729-38.038 30.163-37.536l2.6812-5.3624c-11.328-10.342-5.5446-22.823-3.3515-34.855 5.7332-24.855 11.631-54.41-9.3841-85.127-14.763-21.579-40.228-39.698-81.106-42.899l-29.256-0.15567z" fill="#fff" fill-rule="evenodd"/>
  <path d="m353.48 320.92c-35.29 3.2716-66.768 12.915-88.046 50.428-15.333 27.032-12.274 59.573-6.0326 77.084 5.7313 16.081 4.2328 31.45-3.5548 38.911 2.2511 5.045 0.4163 0.75445 2.4444 5.8408 31.562-8.3533 30.932 23.782 30.759 36.591-0.52977 39.178-18.724 56.635-44.436 54.964l-3.3108 5.1254c17.83 14.545-8.2864 50.601-12.065 76.414-5.3192 36.333 7.5628 68.816 30.163 89.149 27.648 24.874 66.323 27.274 109.26 26.812 48.803-0.52593 72.855-5.791 95.182-21.449 35.485-24.886 46.913-68.799 39.547-96.522-12.118-45.613-25.883-65.689-11.395-79.095l-2.6812-5.3624c-38.717 12.275-45.205-33.432-45.58-52.953-0.3562-18.558 4.729-38.038 30.163-37.536l2.6812-5.3624c-11.328-10.342-5.5446-22.823-3.3515-34.855 5.7332-24.855 11.631-54.41-9.3841-85.127-14.763-21.579-40.228-39.698-81.106-42.899l-29.256-0.15567z" fill="#fff" fill-rule="evenodd"/>
  <path d="m354.08 324.87c-33.71 3.2199-63.779 12.711-84.103 49.631-14.646 26.604-11.724 58.631-5.7626 75.865 5.4747 15.827 4.0433 30.283-3.3956 37.625 24.339-4.4788 32.108 9.3694 31.717 41.761-0.29341 24.28-4.3358 55.993-45.609 59.81 17.031 14.316-7.9154 49.802-11.525 75.206-5.081 35.759 7.2242 67.728 28.813 87.74 26.41 24.481 63.354 26.843 104.37 26.388 46.618-0.51762 69.593-5.6994 90.92-21.11 33.896-24.493 44.812-67.711 37.777-94.997-11.575-44.892-22.043-63.645-10.885-77.845-21.397 10.959-47.444-17.329-46.1-57.394 1.3673-40.768 17.458-39.743 31.374-42.221-10.821-10.179-5.2964-22.462-3.2014-34.304 5.4765-24.462 11.11-53.55-8.964-83.782-14.102-21.238-38.427-39.071-77.474-42.221l-27.946-0.15321z" fill="#fff" fill-rule="evenodd" stroke-width=".9696"/>
  <path d="m355.26 161.88c-4.7538-0.99646-4.6521-4.4206-4.4629-7.8886l4.9212-61.177c-3.1003-2.2712-3.0582-5.1708-3.0808-8.0575-7.5938-1.8245-5.9505-6.7702-5.0952-11.612 3.6587-0.37002 2.8566-0.30817 6.0004-0.42776-0.46566-2.0156 1.074-7.292 4.4269-7.7482-1.2618-7.0541 2.9306-6.0212 7.228-6.2801 8.1949-0.49372 5.1745 3.3601 5.8061 6.8726 2.832 0.8763 4.4737 3.6686 4.1472 7.702l6.1616 0.59246c0.95683 10.761-3.949 10.508-7.1096 10.783-0.36896 3.4493 0.45339 7.7312-4.0287 8.8869 0.76432 4.2401 1.9224 8.874 3.3178 13.745 6.6749 18.169 6.5151 38.234 4.5027 54.507l-22.735 0.10299z" fill="#fff" fill-rule="evenodd"/>
  <path d="m357.97 65.557-2.0144 21.684c-0.24392 3.4037 0.54418 5.7754 4.3842 5.0952l6.5171 0.11849c5.8446 0.53615 4.1257-2.9319 5.0952-4.9767l-1.5404-22.277c0.55752-3.9137 0.19026-7.1228-5.8061-6.0431-3.1424 0.11677-7.0981-1.5288-6.6356 6.3986z" fill="#fff" fill-rule="evenodd"/>
  <path d="m359.03 109.75-1.5404 30.571c-0.20421 3.2917 1.0209 3.7248 2.3698 3.9102l11.968-0.11849c3.407-0.21715 2.6794-2.0896 2.4883-5.0952l-4.0287-29.386c-0.46132-1.369-0.34027-3.0292-3.1993-3.1993h-5.6876c-1.6655 0.40551-2.2802 1.6516-2.3698 3.3178z" fill="#fff" fill-rule="evenodd"/>
  <path d="m359.03 109.75-1.5404 30.571c-0.20421 3.2917 1.0209 3.7248 2.3698 3.9102l11.968-0.11849c3.407-0.21715 2.6794-2.0896 2.4883-5.0952l-4.0287-29.386c-0.46132-1.369-0.34027-3.0292-3.1993-3.1993h-5.6876c-1.6655 0.40551-2.2802 1.6516-2.3698 3.3178z" fill="#fff" fill-rule="evenodd"/>
  <path d="m354.06 113.55-15.404-0.11849c-0.66808-2.6156-5.3937-3.1236-8.8869-3.1993-4.771-0.10345-9.0795 2.88-7.5835 7.1096 1.6496 4.6641 9.3963 3.9424 16.352 2.0144l15.049-0.11849 0.47397-5.6876z" fill="#fff" fill-rule="evenodd"/>
  <path d="m352.04 139.85-15.404-0.11849c-0.66808-2.6156-5.5122-2.1756-9.0054-2.2514-4.771-0.10345-10.378 2.7496-7.465 6.1616 3.0716 3.5977 9.3963 3.9424 16.352 2.0144l15.049-0.11849 0.47397-5.6876z" fill="#fff" fill-rule="evenodd"/>
  <path d="m375.5 113.07 9.9534 0.11849c0.35969 4.3686 3.2177 8.2598 8.413 7.702 3.5236-0.37829 8.0314-4.7631 8.2945-10.901 0.23576-5.4999-4.969-10.202-9.8349-10.19-3.8007 0.0091-6.6989 2.8322-6.991 7.5835l-11.968-0.47397 2.1329 6.1616z" fill="#fff" fill-rule="evenodd"/>
  <path d="m379.18 135.23 11.02 0.11849c0.35969 4.3686 3.2177 8.2598 8.413 7.702 3.5236-0.37829 8.0314-4.7631 8.2945-10.901 0.23576-5.4999-4.969-10.202-9.8349-10.19-3.8007 0.00911-6.6989 2.8322-6.991 7.5835h-11.257l0.35548 5.6876z" fill="#fff" fill-rule="evenodd"/>
  <path d="m359.28 782.23c-1.5528 1.5528-0.21744 9.9417 7.3732 9.7193 7.2693-0.21303 8.6839-8.2499 7.0381-9.3841l-14.411-0.33514z" fill="#fff" fill-rule="evenodd"/>
  <path d="m363.63 791.62 0.6703 94.847 2.0109 94.176h5.6975l-1.0054-119.31-0.33515-71.051c-1.8353 1.4683-4.3132 1.6514-7.0381 1.3406z" fill="#fff" fill-rule="evenodd"/>
  <path d="m346.21 782.57s0.16757 3.938 3.3515 5.0272 9.3841-0.67029 9.3841-0.67029l0.33515-4.6921-13.071 0.33514z" fill="#fff" fill-rule="evenodd"/>
  <path d="m359.28 567.74c-6.7029-3.6545-13.406-2.6804-20.109-3.0163v10.39c8.5723-0.55115 17.628-0.72477 20.109-3.0163h21.114c0.85141 4.7459 13.463 1.926 19.103 2.6812l-0.67029-9.3841c-7.8201-1.1172-13.853-0.44686-18.098 2.0109l-21.449 0.33514z" fill="#fff" fill-rule="evenodd"/>
  <path d="m360.62 778.55h16.757c0.93267-8.9736 0.51724-27.335-0.33514-37.201-0.2517-23.167-2.085-36.159 4.3569-62.673 5.1832-13.111 6.606-28.479 7.3732-44.239-11.035 3.0317-22.948 4.5271-37.536 1.3406 1.5902 14.399 1.6225 28.176 7.3732 44.239 6.878 21.593 5.5871 39.101 3.6866 56.305-2.2952 14.076-2.0003 28.152-1.6757 42.229z" fill="#fff" fill-rule="evenodd" opacity=".98"/>
  <path d="m355.84 147.94-7.3732 362.63c14.659-5.1464 28.007-3.7436 40.888 0l-14.076-363.3-19.439 0.67029z" fill="#fff" fill-rule="evenodd"/>
  <path d="m355.97 147.07-7.3732 362.63c14.659-5.1464 28.007-3.7436 40.888 0l-14.076-363.3-19.439 0.67029z" fill="#fff" fill-rule="evenodd"/>
  <path d="m360.22 655.18-2.8438-83.419v-5.6876l2.8438-420.89v-5.6876 0.94794" fill="#fff" fill-rule="evenodd"/>
  <path d="m367.8 655.18v-89.106l-5.6876-422.78 0.94794-15.167v-1.8959" fill="none"/>
  <path d="m375.86 654.7 2.3698-81.997v-7.5835l-8.5314-419.94-1.8959-14.219" fill="none"/>
  <path d="m383.92 655.18 5.6876-81.523v-9.4794l-15.167-421.83" fill="none"/>
  <path d="m328.11 533.55c-11.327-5.0035-13.468 17.416-12.736 40.553-0.59125 33.607-10.293 35.978-18.433 35.861-4.4843-0.06439-12.104-3.7866-9.7193-11.73 0.74931-2.4963 5.0267-5.2378 8.0435-2.0109 1.32 1.4118 2.1877 4.4686-2.0109 6.703 8.4467 9.3832 14.251-3.0678 15.752-9.049 2.677-13.556 1.5316-28.204 2.346-42.564 0.58831-10.373 4.3666-20.618 14.411-21.449 3.5486-0.29357 7.2887 1.7331 9.049 6.3678-0.62397 3.4287-1.7469 6.0257-5.0272 5.0272-3.173-1.7352-3.8602-4.1873-1.6757-7.7084z" fill="#fff" fill-rule="evenodd" opacity=".98"/>
  <path d="m409.1 534.56c11.327-5.0035 13.468 17.416 12.736 40.553 0.59125 33.607 10.293 35.978 18.433 35.861 4.4843-0.06439 12.104-3.7866 9.7193-11.73-0.74931-2.4963-5.0267-5.2378-8.0435-2.0109-1.32 1.4118-2.1877 4.4686 2.0109 6.703-8.4467 9.3832-14.251-3.0678-15.752-9.049-2.677-13.556-1.5316-28.204-2.346-42.564-0.58831-10.373-4.3666-20.618-14.411-21.449-3.5486-0.29357-7.2887 1.7331-9.049 6.3678 0.62397 3.4287 1.7469 6.0257 5.0272 5.0272 3.173-1.7352 3.8602-4.1873 1.6757-7.7084z" fill="#fff" fill-rule="evenodd"/>
 </g>
</svg>
